<?xml version="1.0" encoding="utf-8"?>
<!-- Generator: Adobe Illustrator 27.5.0, SVG Export Plug-In . SVG Version: 6.00 Build 0)  -->
<svg version="1.1" id="Capa_1" xmlns="http://www.w3.org/2000/svg" xmlns:xlink="http://www.w3.org/1999/xlink" x="0px" y="0px"
	 viewBox="0 0 1841 2445" style="enable-background:new 0 0 1841 2445;" xml:space="preserve">
<path style="fill:#F1D0CA;" d="M1440.205,896.292c-0.033-2.309-0.073-4.62-0.12-6.93c-0.016-0.77-0.032-1.54-0.049-2.31
	c-0.069-3.081-0.151-6.162-0.249-9.243c-0.024-0.77-0.049-1.54-0.076-2.31c-0.052-1.54-0.109-3.08-0.169-4.62
	c-0.03-0.77-0.062-1.54-0.094-2.309c-0.129-3.079-0.275-6.157-0.44-9.231c-0.165-3.076-0.349-6.149-0.553-9.219
	c-0.102-1.535-0.209-3.069-0.321-4.602c-0.056-0.766-0.114-1.533-0.173-2.299c-0.118-1.532-0.241-3.064-0.37-4.594
	c-0.129-1.53-0.264-3.059-0.405-4.588c-0.14-1.528-0.287-3.056-0.441-4.581c-0.917-9.155-2.055-18.265-3.464-27.305
	c-0.235-1.507-0.477-3.012-0.727-4.514c-5.628-33.815-15.178-66.611-31.236-97.156c-0.308-0.586-0.625-1.169-0.945-1.75
	l-0.143-0.259c-0.306-0.551-0.619-1.099-0.936-1.646l-0.181-0.309c-0.317-0.542-0.64-1.082-0.969-1.62l-0.18-0.292
	c-0.343-0.558-0.69-1.113-1.045-1.666l-0.055-0.084c-0.357-0.556-0.72-1.109-1.089-1.66l-0.118-0.178
	c-0.363-0.541-0.734-1.079-1.108-1.616l-0.19-0.274c-0.37-0.527-0.746-1.053-1.126-1.576l-0.205-0.279
	c-0.386-0.527-0.776-1.053-1.172-1.576l-0.151-0.197c-0.413-0.544-0.832-1.086-1.256-1.625l-0.027-0.034
	c-0.427-0.542-0.861-1.082-1.3-1.62l-0.178-0.217l-1.28-1.539l-0.214-0.254l-1.313-1.524l-0.201-0.229
	c-0.458-0.521-0.919-1.041-1.387-1.558l-0.067-0.074l-1.413-1.536l-0.152-0.164l-1.447-1.524l-0.193-0.201l-1.447-1.479l-0.248-0.25
	l-1.518-1.507l-0.055-0.053c-0.538-0.526-1.081-1.051-1.63-1.573l-0.053-0.051c-0.525-0.499-1.055-0.996-1.589-1.492l-0.223-0.208
	c-0.53-0.49-1.065-0.979-1.604-1.467l-0.176-0.159c-0.541-0.488-1.086-0.974-1.635-1.458l-0.216-0.189
	c-0.561-0.493-1.126-0.984-1.696-1.474l-0.024-0.02c-0.563-0.484-1.131-0.965-1.703-1.445l-0.223-0.188
	c-0.563-0.473-1.133-0.944-1.705-1.413l-0.221-0.182c-0.566-0.463-1.136-0.926-1.711-1.386l-0.267-0.215
	c-0.593-0.475-1.189-0.948-1.79-1.419l-0.043-0.034c-1.267-0.994-2.552-1.98-3.853-2.961l-0.19-0.143
	c-0.62-0.467-1.244-0.932-1.87-1.396l-0.194-0.143c-0.638-0.471-1.279-0.94-1.925-1.408l-0.095-0.069
	c-2.031-1.471-4.098-2.928-6.198-4.372l-0.149-0.103c-0.679-0.466-1.362-0.932-2.048-1.396l-0.105-0.071
	c-2.113-1.428-4.257-2.845-6.431-4.249l-0.198-0.128c-0.703-0.453-1.409-0.906-2.117-1.357l-0.104-0.066
	c-0.729-0.465-1.461-0.928-2.197-1.39l-0.032-0.02c-1.478-0.929-2.969-1.854-4.472-2.774l-0.146-0.09
	c-0.723-0.443-1.448-0.884-2.176-1.325l-0.176-0.106c-0.732-0.443-1.466-0.885-2.203-1.326l-0.133-0.079
	c-2.316-1.385-4.654-2.762-7.014-4.131l-0.008-0.005c-0.789-0.458-1.58-0.915-2.374-1.371l-0.048-0.028
	c-2.389-1.372-4.796-2.739-7.222-4.099l-0.03-0.017c-4.059-2.276-8.165-4.536-12.305-6.787l-0.045-0.024
	c-0.8-0.436-1.603-0.871-2.406-1.305l-0.149-0.081c-4.967-2.687-9.977-5.361-15.005-8.034l-0.049-0.026
	c-69.355-36.861-142.294-73.368-155.186-136.723h1.194c35.884,0,65.244-29.359,65.244-65.243v-19.527
	c0-35.884-29.36-65.243-65.244-65.243h-59.196l21.252-81.113c9.237-35.253-15.28-70.273-49.197-70.273H779.274
	c-36.193,0-60.928,39.505-47.454,75.793l28.067,75.594h-43.179c-35.884,0-65.243,29.359-65.243,65.243v19.527
	c0,32.211,23.659,59.16,54.457,64.34l0.173,0.029l1.359,0.211l0.606,0.085l0.683,0.088l1.126,0.13l0.516,0.051l1.087,0.097
	l0.323,0.027l1.371,0.087l0.342,0.018l1.41,0.054l0.284,0.006l1.508,0.02h1.194C695.29,579.248,487.964,607.78,439.23,700.479
	c-45.675,86.885-38.694,191.973-38.59,286.955c0.226,206.611,58.337,798.63,138.197,1074.567l0.01,0.034
	c0.372,1.283,0.744,2.56,1.116,3.83l0.043,0.147c0.945,3.222,1.894,6.398,2.845,9.53l0.09,0.296c0.327,1.073,0.653,2.141,0.98,3.204
	l0.234,0.76c0.281,0.907,0.561,1.81,0.841,2.709l0.279,0.891c0.169,0.541,0.339,1.081,0.508,1.619
	c0.202,0.639,0.404,1.276,0.605,1.912c0.166,0.523,0.332,1.043,0.499,1.563c0.222,0.696,0.445,1.389,0.668,2.08l0.406,1.255
	c0.174,0.535,0.347,1.069,0.521,1.601c0.186,0.569,0.371,1.134,0.557,1.699c0.172,0.522,0.343,1.044,0.516,1.563l0.441,1.328
	c0.227,0.681,0.454,1.358,0.681,2.034l0.335,0.995c0.247,0.729,0.493,1.455,0.74,2.179l0.388,1.132
	c0.259,0.753,0.517,1.503,0.776,2.25l0.262,0.753c0.251,0.72,0.502,1.438,0.753,2.151l0.39,1.103
	c0.212,0.598,0.424,1.194,0.636,1.788l0.358,1.001c0.25,0.695,0.5,1.387,0.75,2.076l0.271,0.745
	c0.282,0.774,0.565,1.544,0.848,2.311l0.252,0.681c0.283,0.765,0.567,1.524,0.851,2.28l0.262,0.695
	c0.301,0.799,0.603,1.594,0.904,2.383l0.099,0.26c0.306,0.799,0.614,1.594,0.92,2.383l0.155,0.401
	c0.295,0.756,0.589,1.505,0.884,2.252l0.213,0.539c0.301,0.76,0.603,1.515,0.905,2.265l0.206,0.512
	c0.3,0.744,0.601,1.483,0.902,2.218l0.229,0.556c0.302,0.736,0.606,1.467,0.909,2.193l0.148,0.354
	c0.332,0.793,0.665,1.582,0.998,2.363l0.045,0.107l0.655,1.525l0.116,0.267l0.627,1.445l0.081,0.186
	c0.732,1.673,1.467,3.316,2.202,4.929l0.036,0.079l0.651,1.419l0.143,0.309l0.578,1.241l0.137,0.294
	c0.48,1.024,0.961,2.034,1.443,3.031l0.081,0.166l0.641,1.318l0.121,0.246l0.613,1.241l0.114,0.229l0.636,1.267l0.096,0.191
	c0.482,0.953,0.965,1.892,1.448,2.818l0.125,0.239l0.579,1.099l0.205,0.386l0.479,0.896l0.263,0.488l0.501,0.92l0.19,0.348
	l0.718,1.296l0.021,0.037l0.67,1.19l0.217,0.38l0.522,0.91l0.184,0.318l0.576,0.987l0.139,0.236l0.66,1.11l0.065,0.109l0.736,1.215
	l0.083,0.135l0.617,0.997l0.239,0.381l0.462,0.732l0.276,0.433l0.455,0.707l0.252,0.389l0.613,0.934l0.081,0.123l0.727,1.083
	l0.164,0.24l0.537,0.783l0.26,0.375l0.469,0.668l0.252,0.355l0.501,0.699l0.207,0.286l0.606,0.825l0.118,0.16l0.72,0.957
	l0.168,0.219l0.541,0.701l0.243,0.312l0.488,0.616l0.253,0.316l0.479,0.59l0.243,0.296l0.631,0.757l0.08,0.096l0.723,0.844
	l0.185,0.21l0.545,0.618l0.221,0.246l0.496,0.546l0.26,0.282l0.497,0.531l0.221,0.234l0.668,0.692l0.053,0.055l0.722,0.724
	l0.217,0.213l0.499,0.484l0.259,0.246l0.486,0.455l0.257,0.238l0.5,0.451l0.216,0.193l0.729,0.634
	c89.319,76.24,198.994,79.788,312.993,79.789c1.825,0,3.609-0.068,5.426-0.081c1.817,0.013,3.6,0.081,5.426,0.081
	c113.999,0,223.673-3.548,312.993-79.789c5.176-4.418,10.308-10.516,15.39-18.153c0.423-0.636,0.846-1.283,1.269-1.941l0.634-0.995
	c0.422-0.668,0.845-1.347,1.266-2.036c0.844-1.378,1.685-2.799,2.525-4.261c0.841-1.462,1.68-2.965,2.517-4.509
	c0.419-0.772,0.837-1.554,1.255-2.346c0.836-1.584,1.67-3.209,2.503-4.873c0.833-1.665,1.663-3.368,2.493-5.111
	c0.414-0.872,0.829-1.753,1.243-2.644c0.414-0.891,0.827-1.791,1.241-2.702c0.413-0.909,0.826-1.83,1.238-2.759l0.618-1.401
	c0.412-0.938,0.823-1.887,1.234-2.844c1.645-3.831,3.282-7.812,4.912-11.937c0.611-1.547,1.221-3.114,1.831-4.702
	c0.406-1.059,0.812-2.126,1.217-3.202c0.405-1.076,0.811-2.161,1.215-3.255c0.405-1.094,0.809-2.197,1.212-3.307
	c0.404-1.112,0.807-2.232,1.209-3.36c0.604-1.693,1.207-3.405,1.809-5.137c3.41-9.812,6.787-20.237,10.128-31.225
	c0.393-1.293,0.786-2.594,1.178-3.902c0.588-1.962,1.175-3.942,1.76-5.939c0.195-0.665,0.391-1.333,0.585-2.003
	c0.39-1.339,0.78-2.685,1.168-4.039c0.194-0.677,0.389-1.355,0.583-2.036c1.165-4.084,2.326-8.235,3.482-12.45
	c0.77-2.811,1.539-5.65,2.305-8.517c0.766-2.867,1.531-5.763,2.292-8.686c0.19-0.73,0.381-1.463,0.571-2.197
	c1.331-5.139,2.656-10.361,3.973-15.664c0.377-1.515,0.751-3.037,1.127-4.564c0.75-3.056,1.499-6.138,2.245-9.245
	c0.373-1.554,0.746-3.114,1.118-4.679c2.602-10.962,5.176-22.229,7.72-33.772c1.454-6.596,2.897-13.282,4.332-20.054
	c0.716-3.386,1.431-6.793,2.143-10.22c0.356-1.714,0.711-3.433,1.066-5.157c1.773-8.62,3.53-17.367,5.271-26.231
	c0.174-0.886,0.348-1.774,0.521-2.663c2.085-10.665,4.145-21.495,6.181-32.475c0.17-0.915,0.339-1.831,0.508-2.748
	c0.339-1.834,0.677-3.673,1.014-5.515c0.843-4.606,1.681-9.236,2.516-13.891c1.168-6.516,2.327-13.079,3.477-19.685
	c0.164-0.944,0.329-1.888,0.493-2.834c1.475-8.509,2.937-17.089,4.383-25.733c0.16-0.96,0.321-1.921,0.481-2.883
	c0.641-3.848,1.279-7.708,1.915-11.579c0.476-2.904,0.951-5.814,1.424-8.73c0.473-2.916,0.945-5.84,1.414-8.768
	c0.156-0.976,0.313-1.953,0.469-2.931c0.313-1.955,0.624-3.913,0.935-5.874c0.311-1.96,0.62-3.923,0.93-5.889
	c0.464-2.948,0.926-5.902,1.386-8.861c0.307-1.973,0.613-3.948,0.918-5.925c3.663-23.727,7.213-47.781,10.641-72.02
	c0.429-3.03,0.855-6.063,1.28-9.099c1.133-8.094,2.252-16.207,3.357-24.334c0.277-2.031,0.552-4.064,0.827-6.097
	c0.549-4.067,1.095-8.136,1.637-12.208c0.136-1.018,0.271-2.036,0.406-3.054c0.946-7.128,1.881-14.263,2.806-21.401
	c0.132-1.02,0.264-2.039,0.396-3.06c2.501-19.377,4.921-38.776,7.257-58.125c0.123-1.018,0.245-2.037,0.368-3.055
	c0.735-6.109,1.461-12.212,2.179-18.308c0.12-1.016,0.239-2.032,0.358-3.047c0.239-2.031,0.475-4.062,0.712-6.091
	c0.118-1.015,0.236-2.029,0.354-3.043c1.177-10.142,2.331-20.259,3.46-30.342c0.113-1.008,0.225-2.016,0.338-3.023
	c0.45-4.03,0.896-8.054,1.337-12.072c0.221-2.009,0.441-4.016,0.66-6.022c0.219-2.006,0.437-4.01,0.654-6.012
	c0.325-3.003,0.649-6.002,0.969-8.998c0.535-4.992,1.064-9.972,1.587-14.939c0.104-0.993,0.209-1.986,0.312-2.979
	c0.624-5.954,1.239-11.89,1.844-17.803c0.101-0.985,0.201-1.97,0.302-2.955c0.301-2.953,0.6-5.901,0.896-8.843
	c0.099-0.981,0.197-1.961,0.296-2.941c0.197-1.958,0.393-3.915,0.587-5.869c0.098-0.977,0.194-1.953,0.291-2.929
	c1.258-12.681,2.472-25.248,3.64-37.679c0.18-1.912,0.359-3.822,0.536-5.728c0.178-1.906,0.354-3.808,0.53-5.708
	c0.087-0.949,0.175-1.898,0.262-2.846c1.134-12.322,2.222-24.5,3.263-36.511c0.08-0.923,0.16-1.847,0.239-2.769
	c0.795-9.219,1.563-18.338,2.302-27.346c0.074-0.901,0.148-1.801,0.221-2.7c0.807-9.885,1.58-19.636,2.317-29.239
	c0.067-0.873,0.134-1.745,0.2-2.615c2.194-28.727,4.072-56.11,5.617-81.784c0.047-0.778,0.093-1.555,0.139-2.329
	c0.277-4.65,0.543-9.241,0.797-13.774c0.085-1.511,0.169-3.015,0.251-4.513c2.555-46.433,3.913-86.48,3.947-117.718
	c0.014-12.615,0.149-25.408,0.266-38.313c0.007-0.759,0.014-1.519,0.021-2.278c0.06-6.839,0.114-13.708,0.139-20.598
	c0.006-1.531,0.01-3.063,0.013-4.596c0.001-0.767,0.002-1.533,0.002-2.3c0-0.767,0-1.534,0-2.301
	c-0.001-2.302-0.007-4.606-0.017-6.911C1440.311,905.527,1440.271,900.911,1440.205,896.292z"/>
<path style="fill:#241B33;" d="M1281.774,1023.002c-29.651-15.519-60.858-28.175-93.063-38.034
	c-0.353,1.477-0.492,2.375-0.492,2.375s-0.147-1.028-0.536-2.689c-136.389-41.471-290.561-32.783-420.352,21.646
	c-78.211-13.035-159.704-6.371-222.153,34.881c-13.299,8.785-20.91,23.972-20.892,39.91v0.24
	c0.108,105.224,17.516,333.349,45.455,544.311l-0.006-0.023l0.19,1.416c0.47,3.538,0.943,7.066,1.419,10.594
	c0.266,1.972,0.531,3.942,0.799,5.91c0.466,3.432,0.936,6.855,1.408,10.275c0.287,2.085,0.577,4.166,0.867,6.247
	c0.466,3.348,0.934,6.692,1.406,10.027c0.294,2.08,0.591,4.152,0.887,6.226c0.479,3.357,0.959,6.711,1.443,10.052
	c0.279,1.93,0.563,3.85,0.845,5.774c0.511,3.489,1.02,6.98,1.536,10.45c0.185,1.241,0.373,2.47,0.557,3.708
	c1.151,7.694,2.316,15.335,3.494,22.921c0.206,1.326,0.409,2.663,0.616,3.985c0.485,3.107,0.977,6.186,1.467,9.273
	c0.343,2.16,0.684,4.328,1.03,6.477c0.48,2.987,0.964,5.949,1.447,8.914c0.364,2.234,0.728,4.47,1.095,6.693
	c0.469,2.838,0.94,5.659,1.412,8.477c0.393,2.345,0.787,4.684,1.183,7.014c0.467,2.753,0.937,5.495,1.408,8.227
	c0.402,2.332,0.807,4.652,1.211,6.967c0.468,2.677,0.937,5.352,1.408,8.006c0.424,2.385,0.85,4.748,1.276,7.114
	c0.462,2.563,0.922,5.133,1.388,7.673c0.448,2.449,0.9,4.867,1.351,7.294c0.451,2.425,0.899,4.865,1.353,7.268
	c0.651,3.449,1.307,6.855,1.965,10.256c0.589,3.05,1.182,6.074,1.775,9.085c0.551,2.792,1.101,5.59,1.655,8.346
	c0.428,2.13,0.861,4.223,1.292,6.331c0.506,2.478,1.012,4.957,1.522,7.404c0.447,2.149,0.898,4.268,1.348,6.393
	c0.499,2.36,0.999,4.713,1.502,7.042c0.455,2.111,0.913,4.202,1.371,6.287c0.509,2.315,1.019,4.616,1.531,6.899
	c0.451,2.014,0.903,4.019,1.357,6.008c0.53,2.324,1.062,4.618,1.595,6.905c0.441,1.892,0.881,3.788,1.325,5.655
	c0.564,2.376,1.131,4.712,1.698,7.046c0.419,1.723,0.836,3.462,1.256,5.162c0.675,2.727,1.354,5.398,2.033,8.064
	c0.314,1.233,0.626,2.497,0.941,3.716c0.982,3.801,1.968,7.534,2.959,11.201c0.329,1.22,0.662,2.395,0.992,3.6
	c0.683,2.49,1.366,4.973,2.054,7.397c0.404,1.428,0.811,2.814,1.217,4.218c0.618,2.137,1.237,4.265,1.858,6.348
	c0.43,1.44,0.861,2.85,1.292,4.264c0.604,1.98,1.209,3.942,1.816,5.869c0.44,1.398,0.882,2.779,1.324,4.149
	c0.609,1.891,1.222,3.75,1.834,5.586c0.435,1.304,0.871,2.604,1.308,3.88c0.637,1.861,1.276,3.673,1.917,5.472
	c0.413,1.16,0.824,2.334,1.238,3.468c0.708,1.94,1.419,3.813,2.131,5.677c0.35,0.917,0.699,1.865,1.051,2.764
	c1.062,2.718,2.128,5.363,3.198,7.903l0.01,0.025c0.465,1.105,0.931,2.192,1.398,3.262l0.048,0.109l0.431,0.983l0.002,0.006
	l0.465,1.047l0.037,0.083l0.439,0.977l0.009,0.02c0.466,1.03,0.932,2.043,1.399,3.039l0.083,0.175
	c0.451,0.959,0.903,1.903,1.355,2.829l0.014,0.027l0.46,0.937l0.027,0.053c0.309,0.623,0.617,1.239,0.927,1.848l0.095,0.185
	l0.346,0.677l0.215,0.415l0.766,1.461l0.112,0.209l0.375,0.702l0.052,0.096l0.424,0.781l0.104,0.189l0.366,0.664l0.163,0.291
	l0.322,0.575l0.12,0.212l0.368,0.646l0.054,0.093l0.425,0.734l0.083,0.142l0.4,0.679l0.061,0.103l0.424,0.709l0.025,0.041
	l0.449,0.738l0.111,0.181l0.38,0.615l0.008,0.011l0.455,0.723l0.198,0.309c0.422,0.659,0.845,1.306,1.267,1.936l0.218,0.322
	l0.252,0.372l0.259,0.375l0.239,0.345l0.32,0.454l0.151,0.215l0.224,0.312l0.752,1.032l0.411,0.546l0.076,0.101l0.223,0.292
	c0.414,0.54,0.828,1.067,1.243,1.578l0.234,0.285l0.264,0.322l0.917,1.077l0.053,0.061l1.324,1.462l0.151,0.162l0.061,0.063
	l1.337,1.356l1.056,0.997c5.787,5.272,11.687,10.116,17.691,14.568c8.986-8.592,10.997-23.212,10.997-23.212
	s4.03,27.006,23.925,29.182c-6.231,0.681-10.906,3.709-14.388,7.548c34.375,19.957,71.681,29.128,110.655,33.322
	c29.122,3.134,59.177,3.489,89.636,3.489c1.391,0,2.75-0.055,4.136-0.066c1.385,0.011,2.743,0.066,4.134,0.066
	c86.873,0,170.451-2.886,238.517-64.896l0.742-0.695l0.141-0.135l0.719-0.708l0.128-0.13l0.44-0.456
	c-3.266-3.119-7.474-5.478-12.879-6.068c19.895-2.175,23.607-29.181,23.607-29.181s0.949,6.357,4.198,13.151l0.117-0.222l0.04-0.079
	l0.691-1.344l0.129-0.254l0.685-1.367l0.15-0.302l0.682-1.391l0.139-0.287l0.702-1.466l0.018-0.036l0.701-1.496l0.154-0.331
	l0.68-1.483l0.137-0.304c0.236-0.519,0.471-1.042,0.706-1.57l0.072-0.164c0.241-0.543,0.482-1.091,0.723-1.645l0.033-0.075
	c0.239-0.549,0.478-1.104,0.718-1.662l0.133-0.31c0.228-0.534,0.455-1.071,0.683-1.613l0.128-0.306
	c0.228-0.546,0.457-1.096,0.685-1.65l0.086-0.21c0.214-0.522,0.428-1.049,0.643-1.578l0.148-0.366c0.233-0.579,0.466-1.163,0.7-1.75
	l0.089-0.224c0.234-0.592,0.47-1.19,0.704-1.791l0.116-0.3c0.23-0.591,0.46-1.185,0.689-1.784l0.031-0.081
	c0.235-0.614,0.47-1.234,0.705-1.857l0.14-0.372c0.222-0.59,0.443-1.185,0.665-1.782l0.137-0.37c0.232-0.629,0.464-1.26,0.696-1.897
	l0.034-0.095c0.225-0.617,0.45-1.241,0.674-1.867l0.135-0.375c0.216-0.604,0.432-1.213,0.648-1.824l0.163-0.463
	c0.228-0.646,0.454-1.296,0.681-1.949l0.057-0.164c0.229-0.658,0.457-1.321,0.684-1.987l0.079-0.228
	c0.23-0.674,0.46-1.353,0.689-2.035l0.111-0.33c0.219-0.653,0.439-1.309,0.658-1.969l0.171-0.515
	c0.224-0.677,0.449-1.358,0.673-2.043l0.016-0.047c0.227-0.694,0.453-1.392,0.68-2.093l0.126-0.39
	c0.213-0.664,0.427-1.331,0.641-2.002l0.179-0.566c0.207-0.653,0.415-1.31,0.621-1.969l0.148-0.473
	c0.447-1.428,0.893-2.872,1.339-4.329l0.175-0.574c0.223-0.731,0.445-1.465,0.667-2.202l0.062-0.208
	c0.242-0.801,0.482-1.605,0.722-2.415l0.026-0.09c0.215-0.722,0.429-1.449,0.643-2.179l0.15-0.51
	c0.207-0.705,0.413-1.415,0.62-2.126l0.171-0.592c0.213-0.735,0.425-1.473,0.637-2.214l0.107-0.375
	c0.465-1.63,0.93-3.274,1.394-4.933l0.086-0.306c0.232-0.834,0.465-1.671,0.697-2.512l0.054-0.196
	c0.229-0.832,0.458-1.669,0.687-2.508l0.116-0.424c0.22-0.81,0.441-1.622,0.661-2.438l0.012-0.046
	c0.214-0.796,0.428-1.596,0.642-2.398l0.187-0.7c0.211-0.793,0.422-1.59,0.633-2.391l0.093-0.356
	c0.214-0.815,0.429-1.633,0.643-2.454l0.098-0.375c0.204-0.785,0.408-1.573,0.612-2.363l0.116-0.45
	c0.219-0.85,0.438-1.704,0.656-2.562l0.104-0.406c0.213-0.84,0.427-1.682,0.64-2.527l0.128-0.509c0.2-0.795,0.4-1.593,0.6-2.393
	l0.072-0.289c0.232-0.932,0.464-1.867,0.696-2.805l0.037-0.15c0.221-0.896,0.442-1.796,0.663-2.699l0.16-0.656
	c0.205-0.842,0.41-1.686,0.615-2.535l0.06-0.246c0.205-0.848,0.41-1.7,0.614-2.554l0.112-0.465c0.216-0.902,0.431-1.806,0.646-2.714
	l0.09-0.38c0.222-0.94,0.444-1.881,0.666-2.827l0.052-0.224c0.228-0.971,0.455-1.945,0.682-2.923l0.011-0.049
	c0.476-2.048,0.949-4.11,1.423-6.187l0.054-0.235c0.217-0.952,0.433-1.908,0.649-2.866l0.126-0.559
	c0.204-0.905,0.408-1.812,0.611-2.723l0.028-0.125c0.218-0.975,0.436-1.955,0.653-2.936l0.105-0.473
	c0.214-0.966,0.428-1.936,0.641-2.908l0.061-0.278c0.22-1.002,0.439-2.006,0.658-3.014l0.026-0.122
	c0.206-0.945,0.411-1.895,0.616-2.847l0.142-0.66c0.214-0.997,0.428-1.995,0.642-2.998l0.027-0.126
	c0.219-1.025,0.437-2.052,0.655-3.082l0.105-0.495c0.422-1.998,0.844-4.007,1.264-6.027l0.162-0.779
	c0.195-0.941,0.391-1.883,0.585-2.827l0.075-0.364c0.445-2.161,0.889-4.334,1.332-6.519l0.03-0.148
	c0.227-1.119,0.453-2.242,0.679-3.367l0.01-0.049c0.461-2.291,0.919-4.595,1.377-6.911l0.003-0.015
	c0.202-1.025,0.404-2.052,0.606-3.082l0.153-0.779c0.201-1.029,0.403-2.059,0.604-3.092l0.033-0.171
	c0.22-1.131,0.439-2.264,0.658-3.401l0.025-0.131c0.189-0.981,0.377-1.964,0.566-2.948l0.153-0.799
	c0.174-0.908,0.347-1.819,0.52-2.731l0.213-1.126c0.189-0.995,0.377-1.991,0.565-2.99l0.01-0.056
	c0.194-1.031,0.388-2.064,0.581-3.099l0.194-1.037c0.149-0.799,0.298-1.599,0.447-2.4l0.197-1.061
	c0.419-2.26,0.836-4.53,1.252-6.809l0.043-0.233c0.426-2.336,0.85-4.68,1.274-7.035l0.059-0.329
	c0.205-1.143,0.411-2.287,0.615-3.433l0.059-0.331c0.198-1.111,0.396-2.224,0.593-3.339l0.036-0.198
	c0.213-1.203,0.426-2.409,0.638-3.616l0.024-0.132c0.434-2.467,0.867-4.944,1.297-7.431l0.01-0.059
	c0.411-2.371,0.821-4.752,1.229-7.14l0.135-0.786c0.396-2.319,0.791-4.646,1.184-6.98l0.06-0.359
	c0.405-2.407,0.81-4.822,1.213-7.245l0.109-0.66c0.171-1.031,0.342-2.064,0.513-3.097l0.156-0.95
	c0.378-2.292,0.754-4.589,1.129-6.894l0.115-0.709c0.391-2.399,0.779-4.806,1.167-7.219l0.066-0.409
	c0.405-2.522,0.808-5.052,1.21-7.589l0.015-0.095c0.191-1.206,0.382-2.415,0.572-3.624l0.12-0.762
	c0.378-2.407,0.755-4.821,1.132-7.24l0.042-0.278c0.19-1.223,0.379-2.447,0.568-3.672l0.054-0.346
	c1.214-7.876,2.414-15.813,3.599-23.801l0.024-0.163c0.183-1.235,0.366-2.472,0.549-3.709l0.097-0.654
	c0.568-3.852,1.131-7.715,1.691-11.589l0.052-0.358c0.178-1.227,0.355-2.455,0.531-3.685l0.084-0.583
	c2.126-14.803,4.202-29.757,6.224-44.81l0.021-0.152c3.518-26.199,6.875-52.696,10.056-79.223l0.012-0.095
	c0.153-1.271,0.305-2.541,0.456-3.812l0.064-0.539c0.821-6.884,1.63-13.769,2.426-20.65l0.048-0.413
	c11.741-101.463,20.861-202.08,26.63-286.702c-5.804,2.734-9.719,7.765-12.311,12.704c-3.624,6.907-4.664,13.63-4.664,13.63
	s-3.711-26.101-23.606-28.275c19.895-2.175,23.606-29.181,23.606-29.181s2.168,14.523,11.17,23.127
	c2.579-8.062,5.194-16.055,7.86-23.966c2.816-46.221,4.506-86.571,4.895-117.972c0.054-4.36,0.092-8.607,0.097-12.618v-0.378
	C1316.293,1056.743,1303.225,1034.229,1281.774,1023.002z"/>
<path style="fill:#E0B3AA;" d="M1123.84,318.116H716.708c-35.884,0-65.243,29.359-65.243,65.243v19.527
	c0,14.697,5.024,28.212,13.317,39.136l-0.108-0.017c9.868,13.075,24.486,22.389,41.248,25.222l0.173,0.029l1.359,0.211l0.606,0.085
	l0.683,0.088l1.126,0.13l0.516,0.051l1.087,0.097l0.323,0.027l1.371,0.087l0.342,0.018l1.41,0.054l0.284,0.006l1.508,0.02h350.027
	c17.587-4.148,20.965-28.729,20.965-28.729s3.67,24.581,21.283,28.729h14.857c35.884,0,65.244-29.359,65.244-65.243v-19.527
	C1189.084,347.475,1159.724,318.116,1123.84,318.116z"/>
<path style="fill:#FADED9;" d="M563.832,718.364c86.589,51.21,222.241-13.27,323.263,14.598
	c33.824,9.33,68.058,17.991,102.685,24.146c6.287-8.53,7.804-19.56,7.804-19.56s2.079,13.924,10.617,22.582
	c18.096,2.712,36.297,4.658,54.602,5.576c29.996,1.504,60.259,0.177,89.766-5.668c24.457-4.844,61.582-12.101,78.673-32.014
	c20.309-23.663-5.218-69.799-24.076-86.752c-28.018-25.187-64.929-37.049-96.181-57.286c-12.071-7.817-23.966-16.531-33.95-26.947
	c-7.967-8.311-12.209-21.455-21.792-27.969c-16.618-11.294-42.527,1.295-58.512,8.1c-20.844,8.872-40.765,20.121-62.649,26.373
	c-58.75,13.557-99.747-33.237-148.105-39.936c-15.402-2.134-30.158,5.872-38.69,18.871c-39.63,60.381-161.159,83.691-192.58,143.458
	l-0.1,0.191C548.587,697.603,552.677,711.766,563.832,718.364z"/>
<path style="fill:#E5BDB5;" d="M1440.332,910.137c-0.021-4.61-0.061-9.226-0.127-13.845c-0.033-2.309-0.073-4.62-0.12-6.93
	c-0.016-0.77-0.032-1.54-0.049-2.31c-0.069-3.081-0.151-6.162-0.249-9.243c-0.024-0.77-0.049-1.54-0.076-2.31
	c-0.052-1.54-0.109-3.08-0.169-4.62c-0.03-0.77-0.062-1.54-0.094-2.309c-0.129-3.079-0.275-6.157-0.44-9.231
	c-0.165-3.076-0.349-6.149-0.553-9.219c-0.102-1.535-0.209-3.069-0.321-4.602c-0.056-0.766-0.114-1.533-0.173-2.299
	c-0.118-1.532-0.241-3.064-0.37-4.594c-0.129-1.53-0.264-3.059-0.405-4.588c-0.14-1.528-0.287-3.056-0.441-4.581
	c-0.917-9.155-2.055-18.265-3.464-27.305c-0.235-1.507-0.477-3.012-0.727-4.514c-5.628-33.815-15.178-66.611-31.236-97.156
	c-0.308-0.586-0.625-1.169-0.945-1.75l-0.143-0.259c-0.306-0.551-0.619-1.099-0.936-1.646l-0.181-0.309
	c-0.317-0.542-0.64-1.082-0.969-1.62l-0.18-0.292c-0.343-0.558-0.69-1.113-1.045-1.666l-0.055-0.084
	c-0.357-0.556-0.72-1.109-1.089-1.66l-0.118-0.178c-0.363-0.541-0.734-1.079-1.108-1.616l-0.19-0.274
	c-0.37-0.527-0.746-1.053-1.126-1.576l-0.205-0.279c-0.386-0.527-0.776-1.053-1.172-1.576l-0.151-0.197
	c-0.413-0.544-0.832-1.086-1.256-1.625l-0.027-0.034c-0.427-0.542-0.861-1.082-1.3-1.62l-0.178-0.217l-1.28-1.539l-0.214-0.254
	l-1.313-1.524l-0.201-0.229c-0.458-0.521-0.919-1.041-1.387-1.558l-0.067-0.074l-1.413-1.536l-0.152-0.164l-1.447-1.524
	l-0.193-0.201l-1.447-1.479l-0.248-0.25l-1.518-1.507l-0.055-0.053c-0.538-0.526-1.081-1.051-1.63-1.573l-0.053-0.051
	c-0.525-0.499-1.055-0.996-1.589-1.492l-0.223-0.208c-0.53-0.49-1.065-0.979-1.604-1.467l-0.176-0.159
	c-0.541-0.488-1.086-0.974-1.635-1.458l-0.216-0.189c-0.561-0.493-1.126-0.984-1.696-1.474l-0.024-0.02
	c-0.563-0.484-1.131-0.965-1.703-1.445l-0.223-0.188c-0.563-0.473-1.133-0.944-1.705-1.413l-0.221-0.182
	c-0.566-0.463-1.136-0.926-1.711-1.386l-0.267-0.215c-0.593-0.475-1.189-0.948-1.79-1.419l-0.043-0.034
	c-1.267-0.994-2.552-1.98-3.853-2.961l-0.19-0.143c-0.62-0.467-1.244-0.932-1.87-1.396l-0.194-0.143
	c-0.638-0.471-1.279-0.94-1.925-1.408l-0.095-0.069c-2.031-1.471-4.098-2.928-6.198-4.372l-0.149-0.103
	c-0.679-0.466-1.362-0.932-2.048-1.396l-0.105-0.071c-2.113-1.428-4.257-2.845-6.431-4.249l-0.198-0.128
	c-0.703-0.453-1.409-0.906-2.117-1.357l-0.104-0.066c-0.729-0.465-1.461-0.928-2.197-1.39l-0.032-0.02
	c-1.478-0.929-2.969-1.854-4.472-2.774l-0.146-0.09c-0.723-0.443-1.448-0.884-2.176-1.325l-0.176-0.106
	c-0.732-0.443-1.466-0.885-2.203-1.326l-0.133-0.079c-2.316-1.385-4.654-2.762-7.014-4.131l-0.008-0.005
	c-0.789-0.458-1.58-0.915-2.374-1.371l-0.048-0.028c-2.389-1.372-4.796-2.739-7.222-4.099l-0.03-0.017
	c-4.059-2.276-8.165-4.536-12.305-6.787l-0.045-0.024c-0.8-0.436-1.603-0.871-2.406-1.305l-0.149-0.081
	c-6.633-3.588-13.342-7.154-20.071-10.723c59.905,207.969,75.432,428.806,46.524,645.614c-2.492,4.983-7.142,11.046-11.613,17.253
	c-5.796,79.988-14.365,172.402-25.141,265.528l-0.048,0.413c-0.797,6.882-1.605,13.766-2.426,20.65l-0.064,0.539
	c-0.151,1.271-0.304,2.542-0.456,3.812l-0.012,0.095c-3.181,26.526-6.538,53.024-10.056,79.223l-0.021,0.152
	c-2.022,15.053-4.098,30.007-6.224,44.81l-0.084,0.583c-0.177,1.229-0.354,2.458-0.531,3.685l-0.052,0.358
	c-0.561,3.874-1.124,7.737-1.691,11.589l-0.097,0.654c-0.183,1.237-0.366,2.474-0.549,3.709l-0.024,0.163
	c-1.185,7.988-2.385,15.925-3.599,23.801l-0.054,0.346c-0.189,1.225-0.378,2.449-0.568,3.672l-0.042,0.278
	c-0.376,2.419-0.753,4.832-1.132,7.24l-0.12,0.762c-0.191,1.209-0.381,2.418-0.572,3.624l-0.015,0.095
	c-0.402,2.537-0.805,5.067-1.21,7.589l-0.066,0.409c-0.388,2.413-0.776,4.82-1.167,7.219l-0.115,0.709
	c-0.375,2.304-0.752,4.602-1.129,6.894l-0.156,0.95c-0.171,1.033-0.342,2.066-0.513,3.097l-0.109,0.66
	c-0.402,2.423-0.807,4.838-1.213,7.245l-0.06,0.359c-0.393,2.335-0.788,4.661-1.184,6.98l-0.135,0.786
	c-0.408,2.388-0.818,4.769-1.229,7.14l-0.01,0.059c-0.431,2.486-0.863,4.963-1.297,7.431l-0.024,0.132
	c-0.212,1.207-0.425,2.413-0.638,3.616l-0.036,0.198c-0.198,1.116-0.396,2.228-0.593,3.339l-0.059,0.331
	c-0.205,1.147-0.41,2.291-0.615,3.433l-0.059,0.329c-0.423,2.354-0.848,4.699-1.274,7.035l-0.043,0.233
	c-0.416,2.279-0.833,4.549-1.252,6.809l-0.197,1.061c-0.149,0.802-0.298,1.601-0.447,2.4l-0.194,1.037
	c-0.193,1.035-0.387,2.068-0.581,3.099l-0.01,0.056c-0.188,0.999-0.377,1.995-0.565,2.99l-0.213,1.126
	c-0.174,0.912-0.347,1.823-0.52,2.731l-0.153,0.799c-0.189,0.984-0.377,1.968-0.566,2.948l-0.025,0.131
	c-0.219,1.137-0.439,2.27-0.658,3.401l-0.033,0.171c-0.201,1.033-0.402,2.064-0.604,3.092l-0.153,0.779
	c-0.202,1.029-0.404,2.057-0.606,3.082l-0.003,0.015c-0.458,2.316-0.917,4.619-1.377,6.911l-0.01,0.049
	c-0.226,1.125-0.452,2.248-0.679,3.367l-0.03,0.148c-0.443,2.185-0.887,4.359-1.332,6.519l-0.075,0.364
	c-0.194,0.945-0.39,1.887-0.585,2.827l-0.162,0.779c-0.42,2.02-0.842,4.029-1.264,6.027l-0.105,0.495
	c-0.218,1.03-0.436,2.057-0.655,3.082l-0.027,0.126c-0.213,1.001-0.428,2.001-0.642,2.998l-0.142,0.66
	c-0.205,0.952-0.411,1.901-0.616,2.847l-0.026,0.122c-0.219,1.008-0.438,2.012-0.658,3.014l-0.061,0.278
	c-0.213,0.972-0.427,1.942-0.641,2.908l-0.105,0.473c-0.217,0.981-0.435,1.961-0.653,2.936l-0.028,0.125
	c-0.203,0.911-0.407,1.818-0.611,2.723l-0.126,0.559c-0.216,0.958-0.432,1.913-0.649,2.866l-0.054,0.235
	c-0.473,2.076-0.948,4.14-1.423,6.187l-0.011,0.049c-0.227,0.977-0.454,1.952-0.682,2.923l-0.052,0.224
	c-0.221,0.946-0.444,1.887-0.666,2.827l-0.09,0.38c-0.215,0.907-0.431,1.812-0.646,2.714l-0.112,0.465
	c-0.205,0.854-0.409,1.705-0.614,2.554l-0.06,0.246c-0.205,0.848-0.409,1.692-0.615,2.535l-0.16,0.656
	c-0.221,0.903-0.442,1.803-0.663,2.699l-0.037,0.15c-0.231,0.938-0.464,1.874-0.696,2.805l-0.072,0.289
	c-0.199,0.8-0.4,1.598-0.6,2.393l-0.128,0.509c-0.213,0.846-0.427,1.688-0.64,2.527l-0.104,0.406
	c-0.219,0.857-0.437,1.711-0.656,2.562l-0.116,0.45c-0.204,0.79-0.408,1.578-0.612,2.363l-0.098,0.375
	c-0.214,0.821-0.428,1.639-0.643,2.454l-0.093,0.356c-0.211,0.8-0.422,1.597-0.633,2.391l-0.187,0.7
	c-0.214,0.802-0.428,1.602-0.642,2.398l-0.012,0.046c-0.22,0.816-0.44,1.628-0.661,2.438l-0.116,0.424
	c-0.229,0.84-0.458,1.676-0.687,2.508l-0.054,0.196c-0.232,0.841-0.465,1.678-0.697,2.512l-0.086,0.306
	c-0.463,1.659-0.929,3.304-1.394,4.933l-0.107,0.375c-0.212,0.741-0.425,1.479-0.637,2.214l-0.171,0.592
	c-0.206,0.711-0.413,1.421-0.62,2.126l-0.15,0.51c-0.214,0.73-0.428,1.457-0.643,2.179l-0.026,0.09
	c-0.24,0.809-0.481,1.614-0.722,2.415l-0.062,0.208c-0.222,0.738-0.445,1.472-0.667,2.202l-0.175,0.574
	c-0.446,1.457-0.891,2.901-1.339,4.329l-0.148,0.473c-0.206,0.659-0.414,1.315-0.621,1.969l-0.179,0.566
	c-0.214,0.671-0.427,1.338-0.641,2.002l-0.126,0.39c-0.227,0.701-0.453,1.399-0.68,2.093l-0.016,0.047
	c-0.224,0.685-0.448,1.366-0.673,2.043l-0.171,0.515c-0.219,0.66-0.438,1.316-0.658,1.969l-0.111,0.33
	c-0.229,0.682-0.459,1.361-0.689,2.035l-0.079,0.228c-0.228,0.666-0.455,1.329-0.684,1.987l-0.057,0.164
	c-0.227,0.654-0.454,1.304-0.681,1.949l-0.163,0.463c-0.216,0.611-0.432,1.22-0.648,1.824l-0.135,0.375
	c-0.224,0.626-0.448,1.249-0.674,1.867l-0.034,0.095c-0.231,0.636-0.464,1.268-0.696,1.897l-0.137,0.37
	c-0.221,0.597-0.443,1.192-0.665,1.782l-0.14,0.372c-0.235,0.623-0.47,1.243-0.705,1.857l-0.031,0.081
	c-0.229,0.599-0.459,1.193-0.689,1.784l-0.116,0.3c-0.235,0.601-0.469,1.198-0.704,1.791l-0.089,0.224
	c-0.233,0.587-0.466,1.171-0.7,1.75l-0.148,0.366c-0.214,0.53-0.428,1.056-0.643,1.578l-0.086,0.21
	c-0.228,0.554-0.457,1.104-0.685,1.65l-0.128,0.306c-0.228,0.542-0.455,1.08-0.683,1.613l-0.133,0.31
	c-0.239,0.558-0.478,1.113-0.718,1.662l-0.033,0.075c-0.241,0.553-0.482,1.101-0.723,1.645l-0.072,0.164
	c-0.235,0.528-0.47,1.051-0.706,1.57l-0.137,0.304l-0.68,1.483l-0.154,0.331l-0.701,1.496l-0.018,0.036l-0.702,1.466l-0.139,0.287
	l-0.682,1.391l-0.15,0.302l-0.685,1.367l-0.129,0.254l-0.691,1.344l-0.04,0.079l-0.116,0.222c3.447,7.209,9.484,14.91,19.726,16.029
	c-19.895,2.175-23.925,28.276-23.925,28.276s-1.971-13.844-10.727-22.206l-0.442,0.454l-0.128,0.13l-0.719,0.708l-0.141,0.135
	l-0.742,0.695c-68.066,62.01-151.644,64.896-238.517,64.896c-1.391,0-2.75-0.055-4.134-0.066c-1.385,0.011-2.745,0.066-4.136,0.066
	c-30.459,0-60.513-0.355-89.636-3.489c-46.415,12.946-100.293,12.436-145.424-0.1c-51.751-17.25-92.002-69.001-115.002-126.502
	c-10.692-29.02-16.109-58.04-18.73-87.06l-1.378-0.197l1.344-0.193c-7.167-80.102,6.878-160.203-9.986-240.305
	c-16.307-68.491-56.664-124.032-97.986-179.215c29.955,255.687,74.967,525.419,126.681,646.775l0.045,0.107l0.655,1.525l0.116,0.267
	l0.627,1.445l0.081,0.186c0.732,1.673,1.467,3.316,2.202,4.929l0.036,0.079l0.651,1.419l0.143,0.309l0.578,1.241l0.137,0.294
	c0.481,1.023,0.961,2.034,1.443,3.031l0.081,0.166l0.641,1.318l0.121,0.246l0.613,1.241l0.114,0.229l0.636,1.267l0.096,0.191
	c0.482,0.953,0.965,1.892,1.448,2.818l0.125,0.239l0.579,1.099l0.205,0.386l0.479,0.896l0.263,0.488l0.501,0.92l0.19,0.348
	l0.718,1.296l0.021,0.037l0.67,1.19l0.217,0.38l0.522,0.91l0.184,0.318l0.576,0.987l0.139,0.236l0.66,1.11l0.065,0.109l0.736,1.215
	l0.083,0.135l0.617,0.997l0.239,0.381l0.462,0.732l0.276,0.433l0.455,0.707l0.252,0.389l0.613,0.934l0.081,0.123l0.727,1.083
	l0.164,0.24l0.537,0.783l0.26,0.375l0.469,0.668l0.252,0.355l0.501,0.699l0.207,0.286l0.606,0.825l0.118,0.16l0.72,0.957
	l0.168,0.219l0.541,0.701l0.243,0.312l0.488,0.616l0.253,0.316l0.479,0.59l0.243,0.296l0.631,0.757l0.08,0.096l0.723,0.844
	l0.185,0.21l0.545,0.618l0.221,0.246l0.496,0.546l0.26,0.282l0.497,0.531l0.221,0.234l0.668,0.692l0.053,0.055l0.722,0.724
	l0.217,0.213l0.499,0.484l0.259,0.246l0.486,0.455l0.257,0.238l0.5,0.451l0.216,0.193l0.729,0.634
	c89.319,76.24,198.994,79.788,312.993,79.789c1.825,0,3.609-0.068,5.426-0.081c1.817,0.013,3.6,0.081,5.426,0.081
	c113.999,0,223.673-3.548,312.993-79.789c5.176-4.418,10.308-10.516,15.39-18.153c0.423-0.636,0.846-1.283,1.269-1.941l0.634-0.995
	c0.422-0.668,0.845-1.347,1.266-2.036c0.844-1.378,1.685-2.799,2.525-4.261c0.841-1.462,1.68-2.965,2.517-4.509
	c0.419-0.772,0.837-1.554,1.255-2.346c0.836-1.584,1.67-3.209,2.503-4.873c0.833-1.665,1.663-3.368,2.493-5.111
	c0.414-0.872,0.829-1.753,1.243-2.644c0.414-0.891,0.827-1.791,1.241-2.702c0.413-0.909,0.826-1.83,1.238-2.759l0.618-1.401
	c0.412-0.938,0.823-1.887,1.234-2.844c1.645-3.831,3.282-7.812,4.912-11.937c0.611-1.547,1.221-3.114,1.831-4.702
	c0.406-1.059,0.812-2.126,1.217-3.202c0.405-1.076,0.811-2.161,1.215-3.255c0.405-1.094,0.809-2.197,1.212-3.307
	c0.404-1.112,0.807-2.232,1.209-3.36c0.604-1.693,1.207-3.405,1.809-5.137c3.41-9.812,6.787-20.237,10.128-31.225
	c0.393-1.293,0.786-2.594,1.178-3.902c0.588-1.962,1.175-3.942,1.76-5.939c0.195-0.665,0.391-1.333,0.585-2.003
	c0.39-1.339,0.78-2.685,1.168-4.039c0.194-0.677,0.389-1.355,0.583-2.036c1.165-4.084,2.326-8.235,3.482-12.45
	c0.77-2.811,1.539-5.65,2.305-8.517c0.766-2.867,1.531-5.763,2.292-8.686c0.19-0.73,0.381-1.463,0.571-2.197
	c1.331-5.139,2.656-10.361,3.973-15.664c0.377-1.515,0.751-3.037,1.127-4.564c0.75-3.056,1.499-6.138,2.245-9.245
	c0.373-1.554,0.746-3.114,1.118-4.679c2.602-10.962,5.176-22.229,7.72-33.772c1.454-6.596,2.897-13.282,4.332-20.054
	c0.716-3.386,1.431-6.793,2.143-10.22c0.356-1.714,0.711-3.433,1.066-5.157c1.773-8.62,3.53-17.367,5.271-26.231
	c0.174-0.886,0.348-1.774,0.521-2.663c2.085-10.665,4.145-21.495,6.181-32.475c0.17-0.915,0.339-1.831,0.508-2.748
	c0.339-1.834,0.677-3.673,1.014-5.515c0.843-4.606,1.681-9.236,2.516-13.891c1.168-6.516,2.327-13.079,3.477-19.685
	c0.164-0.944,0.329-1.888,0.493-2.834c1.475-8.509,2.937-17.089,4.383-25.733c0.16-0.96,0.321-1.921,0.481-2.883
	c0.641-3.848,1.279-7.708,1.915-11.579c0.476-2.904,0.951-5.814,1.424-8.73c0.473-2.916,0.945-5.84,1.414-8.768
	c0.156-0.976,0.313-1.953,0.469-2.931c0.313-1.955,0.624-3.913,0.935-5.874c0.311-1.96,0.62-3.923,0.93-5.889
	c0.464-2.948,0.926-5.902,1.386-8.861c0.307-1.973,0.613-3.948,0.918-5.925c3.663-23.727,7.213-47.781,10.641-72.02
	c0.429-3.03,0.855-6.063,1.28-9.099c1.133-8.094,2.252-16.207,3.357-24.334c0.277-2.031,0.552-4.064,0.827-6.097
	c0.549-4.067,1.095-8.136,1.637-12.208c0.136-1.018,0.271-2.036,0.406-3.054c0.946-7.128,1.881-14.263,2.806-21.401
	c0.132-1.02,0.264-2.039,0.396-3.06c2.501-19.377,4.921-38.776,7.257-58.125c0.123-1.018,0.245-2.037,0.368-3.055
	c0.735-6.109,1.461-12.212,2.179-18.308c0.12-1.016,0.239-2.032,0.358-3.047c0.239-2.031,0.475-4.062,0.712-6.091
	c0.118-1.015,0.236-2.029,0.354-3.043c1.177-10.142,2.331-20.259,3.46-30.342c0.113-1.008,0.225-2.016,0.338-3.023
	c0.45-4.03,0.896-8.054,1.337-12.072c0.221-2.009,0.441-4.016,0.66-6.022c0.219-2.006,0.437-4.01,0.654-6.012
	c0.325-3.003,0.649-6.002,0.969-8.998c0.535-4.992,1.064-9.972,1.587-14.939c0.104-0.993,0.209-1.986,0.312-2.979
	c0.624-5.954,1.239-11.89,1.844-17.803c0.101-0.985,0.201-1.97,0.302-2.955c0.301-2.953,0.6-5.901,0.896-8.843
	c0.099-0.981,0.197-1.961,0.296-2.941c0.197-1.958,0.393-3.915,0.587-5.869c0.098-0.977,0.194-1.953,0.291-2.929
	c1.258-12.681,2.472-25.248,3.64-37.679c0.18-1.912,0.359-3.822,0.536-5.728c0.178-1.906,0.354-3.808,0.53-5.708
	c0.087-0.949,0.175-1.898,0.262-2.846c1.134-12.322,2.222-24.5,3.263-36.511c0.08-0.923,0.16-1.847,0.239-2.769
	c0.795-9.219,1.563-18.338,2.302-27.346c0.074-0.901,0.148-1.801,0.221-2.7c0.807-9.885,1.58-19.636,2.317-29.239
	c0.067-0.873,0.134-1.745,0.2-2.615c2.194-28.727,4.072-56.11,5.617-81.784c0.047-0.778,0.093-1.555,0.139-2.329
	c0.277-4.65,0.543-9.241,0.797-13.774c0.085-1.511,0.169-3.015,0.251-4.513c2.555-46.433,3.913-86.48,3.947-117.718
	c0.014-12.615,0.149-25.408,0.266-38.313c0.007-0.759,0.014-1.519,0.021-2.278c0.06-6.839,0.114-13.708,0.139-20.598
	c0.006-1.531,0.01-3.063,0.013-4.596c0.001-0.767,0.002-1.533,0.002-2.3c0-0.767,0-1.534,0-2.301
	C1440.348,914.746,1440.342,912.442,1440.332,910.137z"/>
<path style="fill:#332648;" d="M1316.166,1093.95c0.054-4.36,0.092-8.607,0.097-12.618v-0.378
	c0.031-24.21-13.038-46.725-34.489-57.951c-29.651-15.519-60.858-28.175-93.063-38.034c-0.353,1.477-0.492,2.375-0.492,2.375
	s-0.147-1.028-0.536-2.689c-136.389-41.471-290.561-32.783-420.352,21.646C939.158,1036.623,1159.832,1186.828,1316.166,1093.95z"/>
<path style="fill:#392C50;" d="M671.044,1535.263c10.096-2.864,19.794-7.611,27.998-13.905
	c20.785-15.948,37.28-40.093,48.224-63.731c33.163-71.625,38.879-155.76,36.917-233.484c-1.558-61.7,5.161-157.315-79.46-159.696
	c-40.653-1.143-84.729,14.066-118.54,36.18c-10.312,6.744-16.449,18.326-16.449,30.647v0.182
	c0.074,71.568,10.712,218.168,28.201,363.047C602.753,1534.407,638.912,1544.376,671.044,1535.263z"/>
<path style="fill:#1D1629;" d="M1311.285,1211.88c-2.671,7.925-5.291,15.932-7.874,24.008c1.751,1.673,3.76,3.122,6.062,4.197
	C1310.122,1230.464,1310.726,1221.054,1311.285,1211.88z"/>
<path style="fill:#1D1629;" d="M1309.216,1243.883c-5.804,2.734-9.719,7.765-12.311,12.704
	c-53.632,173.334-96.281,371.519-265.07,451.225c-63.251,28.75-63.251,115.002-103.502,172.503
	c-40.251,46.001-109.252,40.251-161.003,23c-80.501-28.75-132.252-97.752-166.753-178.253
	c-12.191-32.511-22.199-65.749-30.844-99.443c22.128,167.095,50.862,323.424,82.848,399.377l0.01,0.025
	c0.465,1.105,0.931,2.192,1.398,3.262l0.048,0.109l0.431,0.983l0.002,0.006l0.465,1.047l0.037,0.083l0.439,0.977l0.009,0.02
	c0.466,1.03,0.932,2.043,1.399,3.039l0.083,0.175c0.451,0.959,0.903,1.903,1.355,2.829l0.014,0.027l0.46,0.937l0.027,0.053
	c0.309,0.623,0.617,1.239,0.927,1.848l0.095,0.185l0.346,0.677l0.215,0.415l0.766,1.461l0.112,0.209l0.375,0.702l0.052,0.096
	l0.424,0.781l0.104,0.189l0.366,0.664l0.163,0.291l0.322,0.575l0.12,0.212l0.368,0.646l0.054,0.093l0.425,0.734l0.083,0.142
	l0.4,0.679l0.061,0.103l0.424,0.709l0.025,0.041l0.449,0.738l0.111,0.181l0.38,0.615l0.008,0.011l0.455,0.723l0.198,0.309
	c0.422,0.659,0.845,1.306,1.267,1.936l0.218,0.322l0.252,0.372l0.259,0.375l0.239,0.345l0.32,0.454l0.151,0.215l0.224,0.312
	l0.752,1.032l0.411,0.546l0.076,0.101l0.223,0.292c0.414,0.54,0.828,1.067,1.243,1.578l0.234,0.285l0.264,0.322l0.917,1.077
	l0.053,0.061l1.324,1.462l0.151,0.162l0.061,0.063l1.337,1.356l1.056,0.997c5.787,5.272,11.687,10.116,17.691,14.568
	c8.986-8.592,10.997-23.212,10.997-23.212s4.03,27.006,23.925,29.182c-6.231,0.681-10.906,3.709-14.388,7.548
	c34.375,19.957,71.681,29.128,110.655,33.322c29.122,3.134,59.177,3.489,89.636,3.489c1.391,0,2.75-0.055,4.136-0.066
	c1.385,0.011,2.743,0.066,4.134,0.066c86.873,0,170.451-2.886,238.517-64.896l0.742-0.695l0.141-0.135l0.719-0.708l0.128-0.13
	l0.44-0.456c-3.266-3.119-7.474-5.478-12.879-6.068c19.895-2.175,23.607-29.181,23.607-29.181s0.949,6.357,4.198,13.151l0.117-0.222
	l0.04-0.079l0.691-1.344l0.129-0.254l0.685-1.367l0.15-0.302l0.682-1.391l0.139-0.287l0.702-1.466l0.018-0.036l0.701-1.496
	l0.154-0.331l0.68-1.483l0.137-0.304c0.236-0.519,0.471-1.042,0.706-1.57l0.072-0.164c0.241-0.543,0.482-1.091,0.723-1.645
	l0.033-0.075c0.239-0.549,0.478-1.104,0.718-1.662l0.133-0.31c0.228-0.534,0.455-1.071,0.683-1.613l0.128-0.306
	c0.228-0.546,0.457-1.096,0.685-1.65l0.086-0.21c0.214-0.522,0.428-1.049,0.643-1.578l0.148-0.366c0.233-0.579,0.466-1.163,0.7-1.75
	l0.089-0.224c0.234-0.592,0.47-1.19,0.704-1.791l0.116-0.3c0.23-0.591,0.46-1.185,0.689-1.784l0.031-0.081
	c0.235-0.614,0.47-1.234,0.705-1.857l0.14-0.372c0.222-0.59,0.443-1.185,0.665-1.782l0.137-0.37c0.232-0.629,0.464-1.26,0.696-1.897
	l0.034-0.095c0.225-0.617,0.45-1.241,0.674-1.867l0.135-0.375c0.216-0.604,0.432-1.213,0.648-1.824l0.163-0.463
	c0.228-0.646,0.454-1.296,0.681-1.949l0.057-0.164c0.229-0.658,0.457-1.321,0.684-1.987l0.079-0.228
	c0.23-0.674,0.46-1.353,0.689-2.035l0.111-0.33c0.219-0.653,0.439-1.309,0.658-1.969l0.171-0.515
	c0.224-0.677,0.449-1.358,0.673-2.043l0.016-0.047c0.227-0.694,0.453-1.392,0.68-2.093l0.126-0.39
	c0.213-0.664,0.427-1.331,0.641-2.002l0.179-0.566c0.207-0.653,0.415-1.31,0.621-1.969l0.148-0.473
	c0.447-1.428,0.893-2.872,1.339-4.329l0.175-0.574c0.223-0.731,0.445-1.465,0.667-2.202l0.062-0.208
	c0.242-0.801,0.482-1.605,0.722-2.415l0.026-0.09c0.215-0.722,0.429-1.449,0.643-2.179l0.15-0.51
	c0.207-0.705,0.413-1.415,0.62-2.126l0.171-0.592c0.213-0.735,0.425-1.473,0.637-2.214l0.107-0.375
	c0.465-1.63,0.93-3.274,1.394-4.933l0.086-0.306c0.232-0.834,0.465-1.671,0.697-2.512l0.054-0.196
	c0.229-0.832,0.458-1.669,0.687-2.508l0.116-0.424c0.22-0.81,0.441-1.622,0.661-2.438l0.012-0.046
	c0.214-0.796,0.428-1.596,0.642-2.398l0.187-0.7c0.211-0.793,0.422-1.59,0.633-2.391l0.093-0.356
	c0.214-0.815,0.429-1.633,0.643-2.454l0.098-0.375c0.204-0.785,0.408-1.573,0.612-2.363l0.116-0.45
	c0.219-0.85,0.438-1.704,0.656-2.562l0.104-0.406c0.213-0.84,0.427-1.682,0.64-2.527l0.128-0.509c0.2-0.795,0.4-1.593,0.6-2.393
	l0.072-0.289c0.232-0.932,0.464-1.867,0.696-2.805l0.037-0.15c0.221-0.896,0.442-1.796,0.663-2.699l0.16-0.656
	c0.205-0.842,0.41-1.686,0.615-2.535l0.06-0.246c0.205-0.848,0.41-1.7,0.614-2.554l0.112-0.465c0.216-0.902,0.431-1.806,0.646-2.714
	l0.09-0.38c0.222-0.94,0.444-1.881,0.666-2.827l0.052-0.224c0.228-0.971,0.455-1.945,0.682-2.923l0.011-0.049
	c0.476-2.048,0.949-4.11,1.423-6.187l0.054-0.235c0.217-0.952,0.433-1.908,0.649-2.866l0.126-0.559
	c0.204-0.905,0.408-1.812,0.611-2.723l0.028-0.125c0.218-0.975,0.436-1.955,0.653-2.936l0.105-0.473
	c0.214-0.966,0.428-1.936,0.641-2.908l0.061-0.278c0.22-1.002,0.439-2.006,0.658-3.014l0.026-0.122
	c0.206-0.945,0.411-1.895,0.616-2.847l0.142-0.66c0.214-0.997,0.428-1.995,0.642-2.998l0.027-0.126
	c0.219-1.025,0.437-2.052,0.655-3.082l0.105-0.495c0.422-1.998,0.844-4.007,1.264-6.027l0.162-0.779
	c0.195-0.941,0.391-1.883,0.585-2.827l0.075-0.364c0.445-2.161,0.889-4.334,1.332-6.519l0.03-0.148
	c0.227-1.119,0.453-2.242,0.679-3.367l0.01-0.049c0.461-2.291,0.919-4.595,1.377-6.911l0.003-0.015
	c0.202-1.025,0.404-2.052,0.606-3.082l0.153-0.779c0.201-1.029,0.403-2.059,0.604-3.092l0.033-0.171
	c0.22-1.131,0.439-2.264,0.658-3.401l0.025-0.131c0.189-0.981,0.377-1.964,0.566-2.948l0.153-0.799
	c0.174-0.908,0.347-1.819,0.52-2.731l0.213-1.126c0.189-0.995,0.377-1.991,0.565-2.99l0.01-0.056
	c0.194-1.031,0.388-2.064,0.581-3.099l0.194-1.037c0.149-0.799,0.298-1.599,0.447-2.4l0.197-1.061
	c0.419-2.26,0.836-4.53,1.252-6.809l0.043-0.233c0.426-2.336,0.85-4.68,1.274-7.035l0.059-0.329
	c0.205-1.143,0.411-2.287,0.615-3.433l0.059-0.331c0.198-1.111,0.396-2.224,0.593-3.339l0.036-0.198
	c0.213-1.203,0.426-2.409,0.638-3.616l0.024-0.132c0.434-2.467,0.867-4.944,1.297-7.431l0.01-0.059
	c0.411-2.371,0.821-4.752,1.229-7.14l0.135-0.786c0.396-2.319,0.791-4.646,1.184-6.98l0.06-0.359
	c0.405-2.407,0.81-4.822,1.213-7.245l0.109-0.66c0.171-1.031,0.342-2.064,0.513-3.097l0.156-0.95
	c0.378-2.292,0.754-4.589,1.129-6.894l0.115-0.709c0.391-2.399,0.779-4.806,1.167-7.219l0.066-0.409
	c0.405-2.522,0.808-5.052,1.21-7.589l0.015-0.095c0.191-1.206,0.382-2.415,0.572-3.624l0.12-0.762
	c0.378-2.407,0.755-4.821,1.132-7.24l0.042-0.278c0.19-1.223,0.379-2.447,0.568-3.672l0.054-0.346
	c1.214-7.876,2.414-15.813,3.599-23.801l0.024-0.163c0.183-1.235,0.366-2.472,0.549-3.709l0.097-0.654
	c0.568-3.852,1.131-7.715,1.691-11.589l0.052-0.358c0.178-1.227,0.355-2.455,0.531-3.685l0.084-0.583
	c2.126-14.803,4.202-29.757,6.224-44.81l0.021-0.152c3.518-26.199,6.875-52.696,10.056-79.223l0.012-0.095
	c0.153-1.271,0.305-2.541,0.456-3.812l0.064-0.539c0.821-6.884,1.63-13.769,2.426-20.65l0.048-0.413
	C1294.327,1429.121,1303.447,1328.505,1309.216,1243.883z"/>
<path style="fill:#241B33;" d="M1085.897,237.003c9.237-35.253-15.28-70.273-49.197-70.273H779.274
	c-36.193,0-60.928,39.505-47.454,75.793l28.067,75.594h304.758L1085.897,237.003z"/>
<path style="fill:#241B33;" d="M826.795,498.32c8.488,22.86,29.962,36.886,52.644,34.386l98.269-10.832
	c20.854-2.299,38.297-18.116,44.006-39.905l3.625-13.838H815.586L826.795,498.32z"/>
<path style="fill:#E5BDB5;" d="M1121.963,318.116H716.708c-35.884,0-65.243,29.359-65.243,65.243v19.527
	c0,14.697,5.024,28.212,13.317,39.136c1.556,0.32,3.149,0.585,4.797,0.769c45.475,6.063,89.351,0.937,132.471-8.635
	c-3.567-5.71-9.091-10.93-17.525-11.852c19.895-2.175,23.606-29.181,23.606-29.181s4.03,27.007,23.924,29.181
	c-6.668,0.729-11.553,4.148-15.102,8.37c33.56-8.211,66.72-18.66,99.879-28.134c69.001-23,143.752,57.501,201.253,0
	C1139.736,380.891,1135.294,346.207,1121.963,318.116z"/>
<path style="fill:#FFFFFF;" d="M1188.711,984.969c1.549-6.484,7.228-24.128,23.433-25.899
	c-19.894-2.175-23.925-29.182-23.925-29.182s-3.712,27.007-23.606,29.182c15.951,1.744,21.497,18.865,23.07,25.586
	c0.389,1.662,0.536,2.689,0.536,2.689S1188.358,986.445,1188.711,984.969z"/>
<path style="fill:#FFFFFF;" d="M989.78,757.109c-3.551,4.817-8.622,8.836-15.802,9.622c19.895,2.175,23.606,28.275,23.606,28.275
	s4.031-26.1,23.925-28.275c-5.609-0.613-9.956-3.201-13.308-6.6c-8.538-8.657-10.617-22.582-10.617-22.582
	S996.068,748.579,989.78,757.109z"/>
<path style="fill:#FFFFFF;" d="M784.367,644.771c0,0,4.031-26.101,23.925-28.276c-19.894-2.175-23.925-29.181-23.925-29.181
	s-3.711,27.006-23.606,29.181C780.656,618.67,784.367,644.771,784.367,644.771z"/>
<path style="fill:#FFFFFF;" d="M727.935,929.887c0,0-3.712,27.007-23.606,29.182c19.894,2.175,23.606,28.275,23.606,28.275
	s4.031-26.1,23.925-28.275C731.966,956.894,727.935,929.887,727.935,929.887z"/>
<path style="fill:#FFFFFF;" d="M1353.625,766.276c0,0-3.711,27.007-23.606,29.182c19.895,2.175,23.606,28.276,23.606,28.276
	s4.031-26.1,23.926-28.276C1357.655,793.284,1353.625,766.276,1353.625,766.276z"/>
<path style="fill:#FFFFFF;" d="M1303.411,1235.888c-9.002-8.604-11.17-23.127-11.17-23.127s-3.711,27.006-23.606,29.181
	c19.895,2.175,23.606,28.275,23.606,28.275s1.04-6.724,4.664-13.63c2.592-4.939,6.507-9.971,12.311-12.704l0.001-0.001
	c2.069-0.974,4.375-1.658,6.95-1.94c-2.467-0.27-4.69-0.922-6.693-1.857l0,0C1307.172,1239.01,1305.162,1237.561,1303.411,1235.888z
	"/>
<path style="fill:#FFFFFF;" d="M500.361,1327.674c0,0,4.031-26.1,23.926-28.276c-19.895-2.175-23.926-29.181-23.926-29.181
	s-3.711,27.006-23.605,29.181C496.65,1301.574,500.361,1327.674,500.361,1327.674z"/>
<path style="fill:#FFFFFF;" d="M920.115,2173.317c0,0-3.712,27.006-23.606,29.181c19.894,2.175,23.606,28.276,23.606,28.276
	s4.03-26.1,23.925-28.276C924.145,2200.323,920.115,2173.317,920.115,2173.317z"/>
<path style="fill:#FFFFFF;" d="M1087.7,439.401c0,0-3.378,24.581-20.965,28.729c-0.847,0.2-1.726,0.353-2.641,0.453
	c19.895,2.175,23.606,28.275,23.606,28.275s4.031-26.1,23.926-28.275c-0.914-0.1-1.795-0.253-2.643-0.453
	C1091.37,463.982,1087.7,439.401,1087.7,439.401z"/>
<path style="fill:#FFFFFF;" d="M832.057,422.304c-19.894-2.175-23.924-29.181-23.924-29.181s-3.712,27.007-23.606,29.181
	c8.433,0.922,13.957,6.142,17.525,11.852c4.849,7.76,6.082,16.423,6.082,16.423s1.783-11.534,8.822-19.906
	C820.504,426.452,825.389,423.033,832.057,422.304z"/>
<path style="fill:#FFFFFF;" d="M973.819,227.178c0,0-3.712,27.007-23.606,29.182c19.894,2.175,23.606,28.275,23.606,28.275
	s4.03-26.1,23.925-28.275C977.849,254.185,973.819,227.178,973.819,227.178z"/>
<path style="fill:#FFFFFF;" d="M500.361,904.834c0,0,4.031-26.1,23.926-28.276c-19.895-2.175-23.926-29.182-23.926-29.182
	s-3.711,27.007-23.605,29.182C496.65,878.734,500.361,904.834,500.361,904.834z"/>
<path style="fill:#FFFFFF;" d="M1041.638,1815.786c0,0-3.712,27.007-23.606,29.182c19.894,2.175,23.606,28.276,23.606,28.276
	s4.03-26.101,23.925-28.276C1045.668,1842.792,1041.638,1815.786,1041.638,1815.786z"/>
<path style="fill:#FFFFFF;" d="M1087.7,1580.325c0,0,4.031-26.1,23.926-28.275c-19.895-2.175-23.926-29.182-23.926-29.182
	s-3.711,27.007-23.606,29.182C1083.989,1554.225,1087.7,1580.325,1087.7,1580.325z"/>
<path style="fill:#FFFFFF;" d="M730.236,2086.8c-19.895-2.175-23.925-29.182-23.925-29.182s-2.011,14.62-10.997,23.212
	c-3.227,3.085-7.352,5.395-12.609,5.969c19.894,2.175,23.606,28.275,23.606,28.275s1.902-12.311,9.537-20.727
	C719.331,2090.509,724.005,2087.48,730.236,2086.8z"/>
<path style="fill:#FFFFFF;" d="M569.575,1942.084c0,0,4.031-26.1,23.926-28.275c-19.895-2.175-23.926-29.182-23.926-29.182
	s-3.546,25.775-22.262,28.989l-1.344,0.193l1.378,0.197C566.034,1917.205,569.575,1942.084,569.575,1942.084z"/>
<path style="fill:#FFFFFF;" d="M1175.825,2028.89c0,0-3.712,27.006-23.607,29.181c5.404,0.591,9.613,2.949,12.879,6.068l0.001,0.001
	c8.756,8.363,10.727,22.206,10.727,22.206s4.03-26.101,23.925-28.276c-10.242-1.119-16.279-8.82-19.726-16.029l-0.001-0.001
	C1176.774,2035.247,1175.825,2028.89,1175.825,2028.89z"/>
<path style="fill:#FFFFFF;" d="M1268.475,1815.786c0,0-3.711,27.007-23.605,29.182c19.894,2.175,23.605,28.276,23.605,28.276
	s4.031-26.101,23.926-28.276C1272.506,1842.792,1268.475,1815.786,1268.475,1815.786z"/>
<path style="fill:#FFFFFF;" d="M1021.35,1257.655c0,0,4.031-26.1,23.925-28.275c-19.894-2.175-23.925-29.182-23.925-29.182
	s-3.712,27.007-23.606,29.182C1017.638,1231.555,1021.35,1257.655,1021.35,1257.655z"/>
<path style="fill:#FFFFFF;" d="M651.306,1136.892c0,0,4.03-26.101,23.925-28.276c-19.895-2.175-23.925-29.181-23.925-29.181
	s-3.712,27.006-23.606,29.181C647.594,1110.791,651.306,1136.892,651.306,1136.892z"/>
<path style="fill:#FFFFFF;" d="M706.311,1720.092c0,0-3.712,27.006-23.606,29.182c19.894,2.175,23.606,28.275,23.606,28.275
	s4.03-26.1,23.925-28.275C710.341,1747.099,706.311,1720.092,706.311,1720.092z"/>
<path style="fill:#FFFFFF;" d="M831.898,1385.131c0,0,4.031-26.1,23.925-28.276c-19.894-2.175-23.925-29.181-23.925-29.181
	s-3.711,27.006-23.606,29.181C828.187,1359.031,831.898,1385.131,831.898,1385.131z"/>
<path style="fill:#392C50;" d="M706.45,1571.321c0.208-5.974-1.157-12.705-6.138-16.009c-2.018-1.339-4.422-1.958-6.805-2.397
	c-13.819-2.542-27.775,0.333-41.405,2.654c-7.215,1.228-14.664-0.912-22.059-3.261c-10.513-3.339-20.838,5.546-19.124,16.443
	c1.189,7.558,2.536,15.077,3.022,20.225c1.126,11.935,2.709,24.891,11.15,33.403c6.989,7.048,17.689,9.585,27.516,8.191
	c9.826-1.394,18.858-6.309,26.716-12.371C694.092,1606.807,705.802,1589.963,706.45,1571.321z"/>
</svg>
